# xmcd
#
# Track frame offsets: 
#        150
#        13510
#        32387
#        49855
#
# Disc length: 843 seconds
#
# Revision: 0
# Processed by: cddbd v1.5PL3 Copyright (c) Steve Scherf et al.
# Submitted via: ExactAudioCopy v0.90b4
#
DISCID=23034904
DTITLE=HITOKI-PIRANHAHEADS - TRAP
DYEAR=2000
DGENRE=Rock
TTITLE0=TRAP
TTITLE1=FICTION
TTITLE2=POLYGRAPH
TTITLE3=Selfish -TRAP MIX-
EXTD=
EXTT0=
EXTT1=
EXTT2=
EXTT3=
PLAYORDER=
